{
  "accessors": [
    {
      "bufferView": 2,
      "componentType": 5126,
      "count": 5021,
      "max": [
        0.9700120091438293,
        -3.7485311031341553,
        2.484266996383667
      ],
      "min": [
        -0.9671800136566162,
        -8.649848937988281,
        0.00036199999158270657
      ],
      "type": "VEC3"
    },
    {
      "bufferView": 2,
      "byteOffset": 60252,
      "componentType": 5126,
      "count": 5021,
      "max": [
        1.0,
        1.0,
        1.0
      ],
      "min": [
        -1.0,
        -1.0,
        -1.0
      ],
      "type": "VEC3"
    },
    {
      "bufferView": 1,
      "componentType": 5126,
      "count": 5021,
      "max": [
        0.9876940250396729,
        0.9716339707374573
      ],
      "min": [
        0.0,
        0.0
      ],
      "type": "VEC2"
    },
    {
      "bufferView": 0,
      "componentType": 5125,
      "count": 14034,
      "type": "SCALAR"
    },
    {
      "bufferView": 2,
      "byteOffset": 120504,
      "componentType": 5126,
      "count": 4625,
      "max": [
        -3.7461910247802734,
        -0.9577810168266296,
        2.282680034637451
      ],
      "min": [
        -6.26584005355835,
        -6.617691993713379,
        -0.0006089999806135893
      ],
      "type": "VEC3"
    },
    {
      "bufferView": 2,
      "byteOffset": 176004,
      "componentType": 5126,
      "count": 4625,
      "max": [
        1.0,
        1.0,
        1.0
      ],
      "min": [
        -1.0,
        -1.0,
        -1.0
      ],
      "type": "VEC3"
    },
    {
      "bufferView": 1,
      "byteOffset": 40168,
      "componentType": 5126,
      "count": 4625,
      "max": [
        0.9732720255851746,
        0.9546120166778564
      ],
      "min": [
        0.03854500129818916,
        0.02164500020444393
      ],
      "type": "VEC2"
    },
    {
      "bufferView": 0,
      "byteOffset": 56136,
      "componentType": 5125,
      "count": 13494,
      "type": "SCALAR"
    },
    {
      "bufferView": 2,
      "byteOffset": 231504,
      "componentType": 5126,
      "count": 2,
      "max": [
        4.517757892608643,
        -5.889660835266113,
        2.15549898147583
      ],
      "min": [
        4.517757892608643,
        -5.889660835266113,
        2.1004059314727783
      ],
      "type": "VEC3"
    },
    {
      "bufferView": 1,
      "byteOffset": 77168,
      "componentType": 5126,
      "count": 2,
      "max": [
        0.0,
        0.0
      ],
      "min": [
        0.0,
        0.0
      ],
      "type": "VEC2"
    },
    {
      "bufferView": 0,
      "byteOffset": 110112,
      "componentType": 5125,
      "count": 2,
      "type": "SCALAR"
    },
    {
      "bufferView": 2,
      "byteOffset": 231528,
      "componentType": 5126,
      "count": 6162,
      "max": [
        6.060418128967285,
        -0.7492280006408691,
        2.7230958938598633
      ],
      "min": [
        3.928086996078491,
        -6.609768867492676,
        -0.002492999890819192
      ],
      "type": "VEC3"
    },
    {
      "bufferView": 2,
      "byteOffset": 305472,
      "componentType": 5126,
      "count": 6162,
      "max": [
        1.0,
        1.0,
        1.0
      ],
      "min": [
        -1.0,
        -1.0,
        -1.0
      ],
      "type": "VEC3"
    },
    {
      "bufferView": 1,
      "byteOffset": 77184,
      "componentType": 5126,
      "count": 6162,
      "max": [
        0.9856730103492737,
        0.9563940167427063
      ],
      "min": [
        0.0,
        0.0
      ],
      "type": "VEC2"
    },
    {
      "bufferView": 0,
      "byteOffset": 110120,
      "componentType": 5125,
      "count": 18426,
      "type": "SCALAR"
    },
    {
      "bufferView": 2,
      "byteOffset": 379416,
      "componentType": 5126,
      "count": 3329,
      "max": [
        1.057178020477295,
        4.198336124420166,
        2.3798999786376953
      ],
      "min": [
        -0.9867640137672424,
        -0.8581979870796204,
        -0.003025999991223216
      ],
      "type": "VEC3"
    },
    {
      "bufferView": 2,
      "byteOffset": 419364,
      "componentType": 5126,
      "count": 3329,
      "max": [
        1.0,
        1.0,
        1.0
      ],
      "min": [
        -1.0,
        -1.0,
        -1.0
      ],
      "type": "VEC3"
    },
    {
      "bufferView": 1,
      "byteOffset": 126480,
      "componentType": 5126,
      "count": 3329,
      "max": [
        1.0002210140228271,
        0.8526809811592102
      ],
      "min": [
        0.06644300371408463,
        0.07483900338411331
      ],
      "type": "VEC2"
    },
    {
      "bufferView": 0,
      "byteOffset": 183824,
      "componentType": 5125,
      "count": 7872,
      "type": "SCALAR"
    },
    {
      "bufferView": 2,
      "byteOffset": 459312,
      "componentType": 5126,
      "count": 6028,
      "max": [
        -3.8848860263824463,
        7.886703014373779,
        2.655432939529419
      ],
      "min": [
        -6.117626190185547,
        1.099910020828247,
        9.999999974752427e-07
      ],
      "type": "VEC3"
    },
    {
      "bufferView": 2,
      "byteOffset": 531648,
      "componentType": 5126,
      "count": 6028,
      "max": [
        1.0,
        1.0,
        1.0
      ],
      "min": [
        -1.0,
        -1.0,
        -1.0
      ],
      "type": "VEC3"
    },
    {
      "bufferView": 1,
      "byteOffset": 153112,
      "componentType": 5126,
      "count": 6028,
      "max": [
        0.9879940152168274,
        0.9744880199432373
      ],
      "min": [
        0.06494399905204773,
        0.01685200072824955
      ],
      "type": "VEC2"
    },
    {
      "bufferView": 0,
      "byteOffset": 215312,
      "componentType": 5125,
      "count": 16644,
      "type": "SCALAR"
    },
    {
      "bufferView": 2,
      "byteOffset": 603984,
      "componentType": 5126,
      "count": 6401,
      "max": [
        6.120619773864746,
        8.619864463806152,
        2.603982925415039
      ],
      "min": [
        3.884032964706421,
        2.1658079624176025,
        -0.0025059999898076057
      ],
      "type": "VEC3"
    },
    {
      "bufferView": 2,
      "byteOffset": 680796,
      "componentType": 5126,
      "count": 6401,
      "max": [
        1.0,
        1.0,
        1.0
      ],
      "min": [
        -1.0,
        -1.0,
        -1.0
      ],
      "type": "VEC3"
    },
    {
      "bufferView": 1,
      "byteOffset": 201336,
      "componentType": 5126,
      "count": 6401,
      "max": [
        0.9350510239601135,
        0.9780539870262146
      ],
      "min": [
        0.0,
        0.0
      ],
      "type": "VEC2"
    },
    {
      "bufferView": 0,
      "byteOffset": 281888,
      "componentType": 5125,
      "count": 18126,
      "type": "SCALAR"
    }
  ],
  "asset": {
    "extras": {
      "author": "OndyRen (https://sketchfab.com/saurondra)",
      "license": "CC-BY-4.0 (http://creativecommons.org/licenses/by/4.0/)",
      "source": "https://sketchfab.com/3d-models/maintenance-vehicles-601a416ce706453e8230b3b4c837ce84",
      "title": "Maintenance vehicles"
    },
    "generator": "Sketchfab-13.42.0",
    "version": "2.0"
  },
  "bufferViews": [
    {
      "buffer": 0,
      "byteLength": 354392,
      "name": "floatBufferViews",
      "target": 34963
    },
    {
      "buffer": 0,
      "byteLength": 252544,
      "byteOffset": 354392,
      "byteStride": 8,
      "name": "floatBufferViews",
      "target": 34962
    },
    {
      "buffer": 0,
      "byteLength": 757608,
      "byteOffset": 606936,
      "byteStride": 12,
      "name": "floatBufferViews",
      "target": 34962
    }
  ],
  "buffers": [
    {
      "byteLength": 1364544,
      "uri": "scene.bin"
    }
  ],
  "images": [
    {
      "uri": "textures/vehicle1_baseColor.png"
    },
    {
      "uri": "textures/vehicle2_baseColor.png"
    },
    {
      "uri": "textures/vehicle3_baseColor.png"
    },
    {
      "uri": "textures/vehicle4_baseColor.png"
    },
    {
      "uri": "textures/vehicle5_baseColor.png"
    },
    {
      "uri": "textures/vehicle6_baseColor.png"
    }
  ],
  "materials": [
    {
      "doubleSided": true,
      "name": "vehicle1",
      "pbrMetallicRoughness": {
        "baseColorTexture": {
          "index": 0
        },
        "metallicFactor": 0.0,
        "roughnessFactor": 0.8011823178082373
      }
    },
    {
      "doubleSided": true,
      "name": "vehicle2",
      "pbrMetallicRoughness": {
        "baseColorTexture": {
          "index": 1
        },
        "metallicFactor": 0.0,
        "roughnessFactor": 0.8011823178082373
      }
    },
    {
      "doubleSided": true,
      "name": "vehicle3",
      "pbrMetallicRoughness": {
        "baseColorTexture": {
          "index": 2
        },
        "metallicFactor": 0.0,
        "roughnessFactor": 0.8011823178082373
      }
    },
    {
      "doubleSided": true,
      "name": "vehicle4",
      "pbrMetallicRoughness": {
        "baseColorTexture": {
          "index": 3
        },
        "metallicFactor": 0.0,
        "roughnessFactor": 0.8011823178082373
      }
    },
    {
      "doubleSided": true,
      "name": "vehicle5",
      "pbrMetallicRoughness": {
        "baseColorTexture": {
          "index": 4
        },
        "metallicFactor": 0.0,
        "roughnessFactor": 0.8011823178082373
      }
    },
    {
      "doubleSided": true,
      "name": "vehicle6",
      "pbrMetallicRoughness": {
        "baseColorTexture": {
          "index": 5
        },
        "metallicFactor": 0.0,
        "roughnessFactor": 0.8011823178082373
      }
    }
  ],
  "meshes": [
    {
      "name": "Object_0",
      "primitives": [
        {
          "attributes": {
            "NORMAL": 1,
            "POSITION": 0,
            "TEXCOORD_0": 2
          },
          "indices": 3,
          "material": 0,
          "mode": 4
        }
      ]
    },
    {
      "name": "Object_1",
      "primitives": [
        {
          "attributes": {
            "NORMAL": 5,
            "POSITION": 4,
            "TEXCOORD_0": 6
          },
          "indices": 7,
          "material": 1,
          "mode": 4
        }
      ]
    },
    {
      "name": "Object_2",
      "primitives": [
        {
          "attributes": {
            "POSITION": 8,
            "TEXCOORD_0": 9
          },
          "indices": 10,
          "material": 2,
          "mode": 1
        }
      ]
    },
    {
      "name": "Object_3",
      "primitives": [
        {
          "attributes": {
            "NORMAL": 12,
            "POSITION": 11,
            "TEXCOORD_0": 13
          },
          "indices": 14,
          "material": 2,
          "mode": 4
        }
      ]
    },
    {
      "name": "Object_4",
      "primitives": [
        {
          "attributes": {
            "NORMAL": 16,
            "POSITION": 15,
            "TEXCOORD_0": 17
          },
          "indices": 18,
          "material": 3,
          "mode": 4
        }
      ]
    },
    {
      "name": "Object_5",
      "primitives": [
        {
          "attributes": {
            "NORMAL": 20,
            "POSITION": 19,
            "TEXCOORD_0": 21
          },
          "indices": 22,
          "material": 4,
          "mode": 4
        }
      ]
    },
    {
      "name": "Object_6",
      "primitives": [
        {
          "attributes": {
            "NORMAL": 24,
            "POSITION": 23,
            "TEXCOORD_0": 25
          },
          "indices": 26,
          "material": 5,
          "mode": 4
        }
      ]
    }
  ],
  "nodes": [
    {
      "children": [
        1
      ],
      "matrix": [
        1.0,
        0.0,
        0.0,
        0.0,
        0.0,
        2.220446049250313e-16,
        -1.0,
        0.0,
        0.0,
        1.0,
        2.220446049250313e-16,
        0.0,
        0.0,
        0.0,
        0.0,
        1.0
      ],
      "name": "Sketchfab_model"
    },
    {
      "children": [
        2,
        3,
        4,
        5,
        6,
        7,
        8
      ],
      "name": "Maintenance vehicles.obj.cleaner.materialmerger.gles"
    },
    {
      "mesh": 0,
      "name": "Object_2"
    },
    {
      "mesh": 1,
      "name": "Object_3"
    },
    {
      "mesh": 2,
      "name": "Object_4"
    },
    {
      "mesh": 3,
      "name": "Object_5"
    },
    {
      "mesh": 4,
      "name": "Object_6"
    },
    {
      "mesh": 5,
      "name": "Object_7"
    },
    {
      "mesh": 6,
      "name": "Object_8"
    }
  ],
  "samplers": [
    {
      "magFilter": 9729,
      "minFilter": 9987,
      "wrapS": 10497,
      "wrapT": 10497
    }
  ],
  "scene": 0,
  "scenes": [
    {
      "name": "Sketchfab_Scene",
      "nodes": [
        0
      ]
    }
  ],
  "textures": [
    {
      "sampler": 0,
      "source": 0
    },
    {
      "sampler": 0,
      "source": 1
    },
    {
      "sampler": 0,
      "source": 2
    },
    {
      "sampler": 0,
      "source": 3
    },
    {
      "sampler": 0,
      "source": 4
    },
    {
      "sampler": 0,
      "source": 5
    }
  ]
}
